<?xml version="1.0" encoding="utf-8"?>
<!-- Generator: Adobe Illustrator 25.0.1, SVG Export Plug-In . SVG Version: 6.00 Build 0)  -->
<svg version="1.1"
	 id="svg8" xmlns:cc="http://creativecommons.org/ns#" xmlns:dc="http://purl.org/dc/elements/1.1/" xmlns:inkscape="http://www.inkscape.org/namespaces/inkscape" xmlns:rdf="http://www.w3.org/1999/02/22-rdf-syntax-ns#" xmlns:sodipodi="http://sodipodi.sourceforge.net/DTD/sodipodi-0.dtd" xmlns:svg="http://www.w3.org/2000/svg"
	 xmlns="http://www.w3.org/2000/svg" xmlns:xlink="http://www.w3.org/1999/xlink" x="0px" y="0px" viewBox="0 0 310 428"
	 style="enable-background:new 0 0 310 428;" xml:space="preserve">
<style type="text/css">
	.st0{fill:#AC530E;}
	.st1{fill:#999999;}
	.st2{fill:#B3B3B3;}
	.st3{fill:#CCCCCC;}
	.st4{fill:#1A1A1A;}
	.st5{fill:#FFFFFF;}
	.st6{fill:#4D4D4D;}
</style>
<defs>
	
		<inkscape:path-effect  bendpath="m 167.58764,-14.292909 h 69.36393" effect="bend_path" hide_knot="false" id="path-effect5533" is_visible="true" lpeversion="1" prop_scale="1" scale_y_rel="false" vertical="false">
		</inkscape:path-effect>
	
		<inkscape:path-effect  apply_no_weight="true" apply_with_weight="true" effect="bspline" helper_size="0" id="path-effect9666" is_visible="true" lpeversion="1" only_selected="false" steps="2" weight="33.333333">
		</inkscape:path-effect>
	
		<inkscape:path-effect  apply_no_weight="true" apply_with_weight="true" effect="bspline" helper_size="0" id="path-effect9664" is_visible="true" lpeversion="1" only_selected="false" steps="2" weight="33.333333">
		</inkscape:path-effect>
	
		<inkscape:path-effect  apply_no_weight="true" apply_with_weight="true" effect="bspline" helper_size="0" id="path-effect9608" is_visible="true" lpeversion="1" only_selected="false" steps="2" weight="33.333333">
		</inkscape:path-effect>
	
		<inkscape:path-effect  apply_no_weight="true" apply_with_weight="true" effect="bspline" helper_size="0" id="path-effect9606" is_visible="true" lpeversion="1" only_selected="false" steps="2" weight="33.333333">
		</inkscape:path-effect>
	
		<inkscape:path-effect  apply_no_weight="true" apply_with_weight="true" effect="bspline" helper_size="0" id="path-effect9572" is_visible="true" lpeversion="1" only_selected="false" steps="2" weight="33.333333">
		</inkscape:path-effect>
	
		<inkscape:path-effect  apply_no_weight="true" apply_with_weight="true" effect="bspline" helper_size="0" id="path-effect9568" is_visible="true" lpeversion="1" only_selected="false" steps="2" weight="33.333333">
		</inkscape:path-effect>
	
		<inkscape:path-effect  effect="powerstroke" end_linecap_type="zerowidth" id="path-effect9558" interpolator_beta="0.2" interpolator_type="CubicBezierJohan" is_visible="true" linejoin_type="extrp_arc" lpeversion="1" miter_limit="4" offset_points="0,0.1322915" scale_width="1" sort_points="true" start_linecap_type="zerowidth">
		</inkscape:path-effect>
	
		<inkscape:path-effect  effect="powerstroke" end_linecap_type="zerowidth" id="path-effect9554" interpolator_beta="0.2" interpolator_type="CubicBezierJohan" is_visible="true" linejoin_type="extrp_arc" lpeversion="1" miter_limit="4" offset_points="0,0.1322915" scale_width="1" sort_points="true" start_linecap_type="zerowidth">
		</inkscape:path-effect>
	
		<inkscape:path-effect  effect="powerstroke" end_linecap_type="zerowidth" id="path-effect9550" interpolator_beta="0.2" interpolator_type="CubicBezierJohan" is_visible="true" linejoin_type="extrp_arc" lpeversion="1" miter_limit="4" offset_points="0,0.1322915" scale_width="1" sort_points="true" start_linecap_type="zerowidth">
		</inkscape:path-effect>
	
		<inkscape:path-effect  effect="powerstroke" end_linecap_type="zerowidth" id="path-effect9546" interpolator_beta="0.2" interpolator_type="CubicBezierJohan" is_visible="true" linejoin_type="extrp_arc" lpeversion="1" miter_limit="4" offset_points="0,0.1322915" scale_width="1" sort_points="true" start_linecap_type="zerowidth">
		</inkscape:path-effect>
	
		<inkscape:path-effect  effect="powerstroke" end_linecap_type="zerowidth" id="path-effect9542" interpolator_beta="0.2" interpolator_type="CubicBezierJohan" is_visible="true" linejoin_type="extrp_arc" lpeversion="1" miter_limit="4" offset_points="5,0.1322915" scale_width="1" sort_points="true" start_linecap_type="zerowidth">
		</inkscape:path-effect>
	
		<inkscape:path-effect  effect="powerstroke" end_linecap_type="zerowidth" id="path-effect9538" interpolator_beta="0.2" interpolator_type="CubicBezierJohan" is_visible="true" linejoin_type="extrp_arc" lpeversion="1" miter_limit="4" offset_points="4,0.1322915" scale_width="1" sort_points="true" start_linecap_type="zerowidth">
		</inkscape:path-effect>
	
		<inkscape:path-effect  effect="powerstroke" end_linecap_type="zerowidth" id="path-effect9532" interpolator_beta="0.2" interpolator_type="CubicBezierJohan" is_visible="true" linejoin_type="extrp_arc" lpeversion="1" miter_limit="4" offset_points="2,0.1322915" scale_width="1" sort_points="true" start_linecap_type="zerowidth">
		</inkscape:path-effect>
	
		<inkscape:path-effect  effect="powerstroke" end_linecap_type="zerowidth" id="path-effect9528" interpolator_beta="0.2" interpolator_type="CubicBezierJohan" is_visible="true" linejoin_type="extrp_arc" lpeversion="1" miter_limit="4" offset_points="2,0.1322915" scale_width="1" sort_points="true" start_linecap_type="zerowidth">
		</inkscape:path-effect>
	
		<inkscape:path-effect  apply_no_weight="true" apply_with_weight="true" effect="bspline" helper_size="0" id="path-effect9526" is_visible="true" lpeversion="1" only_selected="false" steps="2" weight="33.333333">
		</inkscape:path-effect>
	
		<inkscape:path-effect  effect="powerstroke" end_linecap_type="zerowidth" id="path-effect9522" interpolator_beta="0.2" interpolator_type="CubicBezierJohan" is_visible="true" linejoin_type="extrp_arc" lpeversion="1" miter_limit="4" offset_points="3,0.1322915" scale_width="1" sort_points="true" start_linecap_type="zerowidth">
		</inkscape:path-effect>
	
		<inkscape:path-effect  apply_no_weight="true" apply_with_weight="true" effect="bspline" helper_size="0" id="path-effect9520" is_visible="true" lpeversion="1" only_selected="false" steps="2" weight="33.333333">
		</inkscape:path-effect>
	
		<inkscape:path-effect  effect="powerstroke" end_linecap_type="zerowidth" id="path-effect9516" interpolator_beta="0.2" interpolator_type="CubicBezierJohan" is_visible="true" linejoin_type="extrp_arc" lpeversion="1" miter_limit="4" offset_points="2,0.1322915" scale_width="1" sort_points="true" start_linecap_type="zerowidth">
		</inkscape:path-effect>
	
		<inkscape:path-effect  effect="powerstroke" end_linecap_type="zerowidth" id="path-effect9511" interpolator_beta="0.2" interpolator_type="CubicBezierJohan" is_visible="true" linejoin_type="extrp_arc" lpeversion="1" miter_limit="4" offset_points="3,0.1322915" scale_width="1" sort_points="true" start_linecap_type="zerowidth">
		</inkscape:path-effect>
	
		<inkscape:path-effect  effect="powerstroke" end_linecap_type="zerowidth" id="path-effect9507" interpolator_beta="0.2" interpolator_type="CubicBezierJohan" is_visible="true" linejoin_type="extrp_arc" lpeversion="1" miter_limit="4" offset_points="2,0.1322915" scale_width="1" sort_points="true" start_linecap_type="zerowidth">
		</inkscape:path-effect>
</defs>
<sodipodi:namedview  bordercolor="#666666" borderopacity="1.0" id="base" inkscape:current-layer="layer11" inkscape:cx="407.77224" inkscape:cy="608.16903" inkscape:document-rotation="0" inkscape:document-units="mm" inkscape:guide-bbox="true" inkscape:pageopacity="0.0" inkscape:pageshadow="2" inkscape:snap-grids="false" inkscape:window-height="1017" inkscape:window-maximized="1" inkscape:window-width="1920" inkscape:window-x="-8" inkscape:window-y="-8" inkscape:zoom="0.69989729" pagecolor="#ffffff" showgrid="false" showguides="true">
	</sodipodi:namedview>
<g id="g4192" transform="matrix(0.36191863,0,0,0.45703535,-131.33952,68.833288)">
	<path id="path4077" class="st0" d="M694.8,518.7c0-2.2,30.5-154.6,31.4-156.6c0.7-1.7,6-3.6,33.7-12l32.8-9.9l0.8,3
		c1.1,4.2,1.2,163.7,0.1,163.7c-0.5,0-22.2,2.8-48.3,6.3c-26.1,3.5-48.1,6.3-48.9,6.3C695.5,519.8,694.9,519.2,694.8,518.7
		L694.8,518.7z"/>
	<path id="path4079" class="st0" d="M844.5,513.1l-47.6-6.4l-0.4-83.5c-0.2-45.9-0.4-83.6-0.3-83.7c0.2-0.2,69.6,20.7,70,21.1
		c0.1,0.1,7.4,36,16.1,79.7l15.8,79.5l-3-0.1C893.5,519.6,870.7,516.6,844.5,513.1L844.5,513.1z"/>
	<path id="path4081" class="st0" d="M835,347.8l-32.6-9.9l56-11.4c30.8-6.3,56.2-11.3,56.4-11.2c0.6,0.4-44.7,42.1-46,42.3
		C868.1,357.6,852.9,353.2,835,347.8z"/>
	<path id="path4083" class="st0" d="M796.9,316.9v-19l2.6,0.4c1.5,0.2,26.1,3.4,54.8,6.8c28.7,3.5,53.4,6.7,54.9,7.1
		c2,0.4-11.8,3.6-54,12.2c-31.2,6.4-57.1,11.5-57.5,11.5C797.2,335.9,796.9,327.3,796.9,316.9L796.9,316.9z"/>
	<path id="path4085" class="st0" d="M735.9,323.8c-42.6-8.8-53.7-11.3-51-11.7c5.9-0.9,105.6-13.2,107-13.2c0.9,0,1.3,5.2,1.3,18.2
		c0,13.9-0.3,18.2-1.5,18C790.9,335.1,765.8,330,735.9,323.8z"/>
	<path id="path4087" class="st0" d="M701.5,336.6c-12.6-11.7-22.9-21.4-22.7-21.5c0.3-0.2,110.8,22.2,111.4,22.6
		c0.3,0.2-54.6,17.1-64,19.7C725.1,357.8,717.5,351.5,701.5,336.6z"/>
	<path id="path4089" class="st0" d="M875.2,357.4c0-0.2,10.6-10.3,23.7-22.4c17.3-16,24.3-21.9,26.1-21.9c1.3,0,47.2-2.5,101.9-5.4
		c54.8-2.9,99.6-5.3,99.8-5.2c0.3,0.2-2.7,2.1-40.3,24.8l-21.3,12.8l-92.5,8.8C880.3,357.8,875.2,358.2,875.2,357.4z"/>
	<path id="path4091" class="st0" d="M926.7,310.3c0-0.7,98.9-75.5,99.9-75.6c1.1-0.1,101.7,64.3,101,64.7
		c-0.3,0.2-197,11.2-200.6,11.2C926.8,310.6,926.7,310.5,926.7,310.3L926.7,310.3z"/>
	<path id="path4093" class="st0" d="M860.7,303.4c-30.8-3.9-56.2-7.2-56.5-7.3c-0.2-0.1,47.7-13.6,106.3-30
		c58.7-16.3,106.8-29.6,106.9-29.5c0.8,0.7-96.7,73.6-98.6,73.7C917.7,310.5,891.6,307.3,860.7,303.4z"/>
	<path id="path4095" class="st0" d="M805.5,289.8c32.8-32,123.1-118.2,123.7-118.1c0.4,0.1,21.7,13.6,47.3,30
		c33.9,21.7,46,30,44.8,30.6c-2.1,0.9-213.7,59.8-216.9,60.4C802.4,293.2,802.6,292.8,805.5,289.8z"/>
	<path id="path4098" class="st0" d="M983.5,202.6c-23.2-14.9-44.4-28.5-47.2-30.2l-5-3.2l92.7-62.9c51-34.6,92.9-62.7,93.1-62.6
		c0.3,0.2-19.4,40.3-43.7,89.2c-24.3,48.8-45,90.7-46.1,92.8l-1.9,4L983.5,202.6z"/>
	<path id="path4100" class="st0" d="M1099.4,128.7c1-44.5,0.2-40.3,11.9-63.8c5.5-11.1,10.4-20.8,10.9-21.3c0.4-0.5,8,22,16.9,50.1
		c8.8,28.2,15.7,51.4,15.2,51.8c-1,0.7-52.6,13.4-54.4,13.4C1099.2,158.8,1099,147.4,1099.4,128.7L1099.4,128.7z"/>
	<path id="path4102" class="st0" d="M1113.1,286l-17.8-11.2l0.6-18.9c0.3-10.4,1.2-35.7,1.8-56.1c0.7-20.4,1.6-37.3,2-37.6
		c1.5-0.9,54.3-13.6,54.9-13.2c0.8,0.5-22,146.7-23,147.5C1131.2,296.9,1122.8,292.1,1113.1,286z"/>
	<path id="path4104" class="st0" d="M796.9,232.4v-61.1h63.9c51,0,63.7,0.2,62.8,1.1c-0.6,0.5-29.2,28.1-63.4,61.1
		c-34.2,33-62.5,60.1-62.8,60.1S796.9,266,796.9,232.4L796.9,232.4z"/>
	<path id="path4106" class="st0" d="M731.9,230.7l-61.6-59.5h62h62v59.5c0,32.7-0.1,59.5-0.3,59.5
		C793.6,290.2,765.8,263.4,731.9,230.7L731.9,230.7z"/>
	<path id="path4108" class="st0" d="M680.3,262.5c-59.9-16.6-108.9-30.4-109.2-30.7c-0.2-0.1,20.8-13.8,46.6-30.4
		c38.3-24.6,47.3-29.9,48.5-29c1.6,1.2,122.5,117.7,124,119.4c0.5,0.5,0.4,1-0.1,1C789.5,292.9,740.2,279.3,680.3,262.5z"/>
	<path id="path4110" class="st0" d="M522,136.3c-25.3-50.9-45.8-92.6-45.5-92.8c0.6-0.4,185.4,124.9,185.2,125.7
		c-0.3,0.9-91.9,59.7-93,59.7C568.2,228.8,547.1,187.2,522,136.3z"/>
	<path id="path4112" class="st0" d="M465.4,152.2c-18.9-4.8-26.3-7-26.2-7.8c0.3-2.7,31.5-100.9,32.1-100.9c0.3,0,5.4,9.8,11.4,21.7
		L493.5,87l0.8,36.1c0.7,30.2,0.5,36-0.8,36C492.5,158.8,479.9,155.8,465.4,152.2z"/>
	<path id="path4114" class="st0" d="M461.9,297.8c0-0.1-5.3-33.6-11.6-74.5c-6.4-40.8-11.4-74.4-11.1-74.5
		c0.6-0.4,53.5,12.5,54.9,13.5c0.6,0.3,1.7,22.4,2.5,49c0.8,26.5,1.6,51.6,1.9,55.7l0.4,7.3l-18.5,12
		C470.2,292.7,461.9,298,461.9,297.8z"/>
	<path id="path4116" class="st0" d="M564.9,305.1c-52.5-2.9-96.5-5.3-97.7-5.3c-1.8,0-0.5-1.2,5.2-4.9c4.2-2.7,27.2-17.4,51.2-32.8
		l43.6-27.9l39.6,30.1c21.8,16.5,44.6,33.8,50.6,38.3l11,8.3l-4-0.1C662.1,310.5,617.4,308,564.9,305.1L564.9,305.1z"/>
	<path id="path4118" class="st0" d="M624.8,273.9c-26.6-20.2-48.3-36.9-48-37c0.2-0.1,48.3,13,106.7,29.4
		c81.3,22.6,105.7,29.8,103.6,30.2c-2.5,0.5-111.1,14.1-113,14.1C673.6,310.6,651.4,294.1,624.8,273.9z"/>
	<path id="path4120" class="st0" d="M624.5,349.4c-52-5-95.2-9.5-96.1-9.8c-2.4-1-61.6-37-61.2-37.2c0.2-0.1,45.3,2.3,100.3,5.2
		c55.1,3,100.9,5.4,102,5.4c1.2,0,11.6,8.8,26.6,22.7c13.6,12.5,24.3,22.7,23.8,22.6C719.3,358.5,676.4,354.4,624.5,349.4z"/>
	<path id="path4122" class="st0" d="M366.2,464.8c1.5-2.8,93.7-159.7,94.4-160.7c0.6-0.8,24.4,13.2,74.9,43.7l74.1,44.8l-3.9,1.2
		c-70.7,21.5-238.5,72-239.2,72C366,465.7,365.9,465.3,366.2,464.8L366.2,464.8z"/>
	<path id="path4124" class="st0" d="M381.2,464.7c1.5-1,228.4-68.9,228.9-68.6c0.3,0.2-0.6,9.8-2,21.2c-2.1,17.1-2.9,20.9-4.4,21.2
		c-2,0.4-124.7,15.4-182.5,22.4C388.3,464.7,379.9,465.4,381.2,464.7z"/>
	<path id="path4126" class="st0" d="M645.7,474.4c-19-18.4-35-33.9-35.6-34.7c-1.1-1.3,2.4-36.2,3.9-39.1c0.5-1,12,16.7,34,52.5
		c18.3,29.7,33,54.1,32.7,54.4C680.4,507.7,664.6,492.8,645.7,474.4z"/>
	<path id="path4128" class="st0" d="M653.6,455.7c-20.5-33.3-37.2-60.9-37.2-61.3c0-1.1,104.1-32.7,105.1-32
		c0.7,0.4-28.6,148.8-30,151.9C691,515.8,681.7,501.5,653.6,455.7z"/>
	<path id="path4130" class="st0" d="M902.1,516.1c0-0.4-6.9-35.1-15.3-77.1c-8.4-42-15-76.4-14.7-76.6
		c0.4-0.3,104.2,30.4,105.9,31.4c0.3,0.2-72.8,119.5-74.7,121.8C902.6,516.2,902.1,516.4,902.1,516.1L902.1,516.1z"/>
	<path id="path4132" class="st0" d="M1105.5,429.3c-66.1-20-120.2-36.6-120-37.1c0.7-1.4,146.7-89.2,147.4-88.6
		c0.9,0.8,94.7,160.6,94.7,161.5c0,0.3-0.4,0.5-0.9,0.5C1226.3,465.7,1171.7,449.3,1105.5,429.3L1105.5,429.3z"/>
	<path id="path4134" class="st0" d="M1188.9,461.8c-9-1.1-57.5-7-107.7-13.2c-54.8-6.6-91.8-11.5-92.5-12.2c-0.7-0.5-2.1-9-3.3-18.6
		c-1.1-9.7-2.3-18.9-2.7-20.7l-0.6-3l111.6,33.7c61.3,18.6,113.2,34.2,115.1,34.8l3.5,1.1h-3.5
		C1206.9,463.8,1198,462.9,1188.9,461.8L1188.9,461.8z"/>
	<path id="path4136" class="st0" d="M913.1,506.7c0.4-0.9,15.7-25.8,33.8-55.2l33-53.6l2,16c1.1,8.8,2.1,18.2,2.3,20.7l0.3,4.7
		l-34.4,33.3c-18.9,18.3-35.2,33.9-36.1,34.6C912.5,508.3,912.4,508.1,913.1,506.7L913.1,506.7z"/>
	<path id="path4138" class="st0" d="M947.2,479.9c30-29,41-39.1,42.5-38.9c1.1,0.2,34.9,4.3,75.1,9.2c40.3,4.9,73.2,9,73.4,9.1
		c0.2,0.1-51.2,13.5-114.1,29.6S909,518.5,908.2,518.7C907.3,518.9,924.9,501.5,947.2,479.9z"/>
	<path id="path4140" class="st0" d="M933.6,527.8l-24.4-6.2l10.3-2.6c5.7-1.4,50.8-12.9,100.1-25.7c49.4-12.7,90.1-22.8,90.6-22.5
		c0.7,0.4-29.9,13.2-140.6,58.4L958,534L933.6,527.8z"/>
	<path id="path4142" class="st0" d="M571.7,488.9c-60.5-15.7-111-28.6-112.1-28.9c-1.2-0.3,31.3-4.7,71.9-9.7
		c40.8-5,74.4-8.7,74.9-8.4c5.6,4.6,76.6,74.5,76,74.8C682.1,517.1,632.2,504.6,571.7,488.9z"/>
	<path id="path4144" class="st0" d="M558.1,502.3c-41-16.9-74-30.8-73.6-31.2c0.8-0.7,189.8,47.5,195.5,49.8
		c3,1.2-36.9,12.1-44.1,12C634.2,532.9,599.1,519.1,558.1,502.3z"/>
	<path id="path4146" class="st1" d="M425.3,532c0-2.4,21.7-65.7,23.2-67.7c1.1-1.4,13.3,2.7,39.5,13.5c20.9,8.6,38,16,38,16.4
		c0,0.8-92,36.6-98.6,38.5C426.2,532.9,425.3,532.7,425.3,532z"/>
	<path id="path4148" class="st1" d="M432.3,534.7c0-1.2,98.3-38.2,101.3-38.1c1.6,0,4.3,0.7,6.1,1.5c2.6,1.2-0.4,5.3-14.1,19.4
		l-17.3,17.8l-38.1,0.1C449.4,535.3,432.3,535.1,432.3,534.7L432.3,534.7z"/>
	<path id="path4150" class="st1" d="M495.4,564.6c6.5-12.2,20.4-29.9,35.2-44.9l17-17.2l12.1,4.7c20.3,7.9,69.1,28.2,68.6,28.5
		c-1.2,0.8-131.2,32.7-132.9,32.7C494.2,568.4,494.2,566.6,495.4,564.6z"/>
	<path id="path4152" class="st1" d="M745,611.4l-46.9-14l-7-12.8l-7-13.7l-90.7,2.4h-90.7l96.6-26.3
		c53.2-13.2,102.7-24.8,110.1-25.9l13.5-2l35.1,14l36.3,14v39.2c-1.2,21.5-1.5,39.1-1.8,39C792,625.5,770.8,619,745,611.4L745,611.4
		z"/>
	<path id="path4154" class="st1" d="M672.2,701.5c-63-44.6-128.8-91.2-146.2-103.7l-31.6-24.5l93.3,2.4H681l53.7,103
		c29.5,56.5,53.4,103,53,103.3S735.3,746,672.2,701.5L672.2,701.5z"/>
	<path id="path4156" class="st1" d="M743.2,684.4c-22.9-43.9-41.6-80.3-41.6-81c0-1,44,11.3,46.4,12.9c1.4,1,38,143.5,37.4,145.7
		C785,763.2,766.1,728.3,743.2,684.4z"/>
	<path id="path4158" class="st1" d="M773.7,696.7c-10.9-41.9-19.1-76.4-18.4-77c0.7-0.5,9.3,1.4,19,4.3l17.6,5.3l1.5,12.2
		c0.8,6.6,1.2,38.9,0.8,71.8l-0.7,59.6L773.7,696.7z"/>
	<path id="path4160" class="st1" d="M799.7,713c-0.4-30.3-0.8-61.4-2.8-69.1V630l21.3-5.8c10.7-3.2,19.8-5.4,20.3-5.1
		c0.5,0.3-7.8,34-18.6,74.9l-20.2,74.1V713L799.7,713z"/>
	<path id="path4162" class="st1" d="M807.9,761.5c0.6-2.8,9.3-36.6,19.3-75.3l18.2-70.2l23.6-6.7c13-3.7,23.8-6.6,24-6.4
		c0.5,0.3-77.4,149.6-82.5,157.9C806.9,766.4,806.8,766.5,807.9,761.5L807.9,761.5z"/>
	<path id="path4164" class="st1" d="M796.9,587.1v-38.6l37.4-14.6l36.7-14.6l13.1,1.8c7.2,1,56.9,12.6,110.3,25.8l97.2,24l-91.1,2.4
		h-91.1l-5.7,10.2c-3.1,6-6.9,11.9-8.4,12.9c-2.4,1.6-93.4,29.2-96.5,29.2c-0.6,0-1.1-17.4-1.1-38.6L796.9,587.1z"/>
	<path id="path4166" class="st1" d="M805.2,783.1c0.6-1.4,25.2-48.6,54.7-105l53.5-102.4h92.7h92.7l-77.3,55.2
		C850.2,753.1,804.1,785.5,805.2,783.1z"/>
	<path id="path4168" class="st1" d="M1030.7,552.2c-34.7-8.8-63.4-16.2-63.8-16.5c-0.9-0.7,72.8-31.2,76.8-31.9
		c4.4-0.8,38,34,47.3,48.8c4.8,7.6,8.7,14.2,8.7,14.8C1099.7,569.4,1092.2,567.6,1030.7,552.2z"/>
	<path id="path4170" class="st1" d="M1068.2,517.3c-17.9-17.8-19.1-20.8-8.5-20.8c2.7,0,99.3,35.8,103,38.2
		c0.5,0.3-16.5,0.7-37.8,0.7h-38.8L1068.2,517.3z"/>
	<path id="path4172" class="st2" d="M1116.8,513.9c-27.4-10.4-49.7-19.4-49.7-19.8c0-1,77.5-32.4,78.2-31.7
		c1.7,1.6,23.7,70.5,22.6,70.5C1167.1,532.8,1144,524.3,1116.8,513.9z"/>
	<path id="path4174" class="st3" d="M501.8,241.6c-2.8-53.6-3.9-143-1.8-139.5c3.7,6,63.5,127.1,63.5,128.5
		c0,1.3-51.9,35.6-57.7,38.1C504,269.5,502.8,261.8,501.8,241.6z"/>
	<path id="path4176" class="st3" d="M1059.9,250.9c-16.1-10.3-29.1-19.9-28.9-21.2c0.3-2.1,64.9-133.7,65.2-133
		c1,2.5-4.2,160.8-5.4,165.9l-1.7,7.1L1059.9,250.9z"/>
	<path id="path4178" d="M574.2,367.7c-21.6-13-39-23.8-38.5-24c1-0.3,123,11.3,123.6,11.7c1.2,0.9,6.4,19.6,5.6,20.1
		s-31,9.9-46.1,14.2l-5.3,1.5L574.2,367.7z"/>
	<path id="path4180" d="M929.5,376.2c-26.2-7.9-47.6-14.8-47.6-15.1c0-0.8,122.3-12.4,123.2-11.7c1.9,1.5,12.7,18.2,12.3,18.9
		c-1,1.7-36.5,22.7-38.4,22.6C978,390.7,955.7,384.1,929.5,376.2z"/>
	<path id="path4182" class="st4" d="M762,531c-17.3-6.8-30.3-12.7-29-13c5.1-1.3,59.8-8,60.4-7.5c0.4,0.3,0.6,7.8,0.3,16.7
		l-0.5,16.2L762,531z"/>
	<path id="path4184" class="st4" d="M796.9,527.1v-17.7l31.1,4.1c17.1,2.3,31.6,4.5,32.2,4.9c0.6,0.4-7.9,4.3-19.1,8.8
		c-11.1,4.5-25.6,10.2-32.2,12.8l-12,4.8V527.1z"/>
	<path id="path4186" class="st5" d="M1015.7,357.4c-4.4-6.2-5.5-8.9-4-9.2c3.5-0.8,45.1-4.5,45.7-4c0.3,0.2-5.1,3.8-12,7.9
		s-15,9-18,10.9l-5.6,3.4L1015.7,357.4z"/>
	<path id="path4188" class="st5" d="M668.7,374c-0.2-0.5-1.5-4.9-3-9.6s-2.6-8.7-2.4-8.8c0.2-0.2,47.4,4.1,51.5,4.8
		c1.9,0.2,0,1-20.8,7.2c-12.6,3.8-23.4,7.1-23.9,7.2C669.3,374.9,669,374.7,668.7,374z"/>
	<path id="path4190" sodipodi:nodetypes="ccccsssssscccccsccccssscsssssssccccsc" class="st6" d="M432.4,249.4l-48.9-24l-0.6-29
		l-0.6-29l12.7-10.9c14-12,13.8-11.4,16.5-45.2c3.7-46.9,27.9-99.4,63.9-138.6c103.1-112.5,320.9-152.3,497.9-90.9
		C1090.8-77.5,1164-0.7,1181.2,99.9c1.3,7.8,2.4,20.9,2.4,28.9v14.7l14,11.7l14,11.7l-0.6,29l-0.6,29l-48.9,24.1
		c-41,20.2-50.3,24.1-57.6,24.2l-8.7,0.1v-80.9v-80.9h8.1c5.4,0,12.5,2,20.5,5.7c6.7,3.2,14.7,6.6,17.7,7.8l5.5,2.2l-1.6-18.7
		c-7.7-91-62.5-159.5-162.4-202.4c-84.7-36.4-203.5-45.2-302.2-22.5C560.3-88.7,475.5-27.3,454.4,65.4c-4.1,18.3-9.2,57.9-6.1,59.4
		c1,0.4,9.1-2.3,17.9-6.1c10.7-4.6,18.8-6.8,24.4-6.8h8.3v80.9v80.9l-8.7-0.1C482.7,273.4,473.4,269.5,432.4,249.4L432.4,249.4z"/>
</g>
</svg>
